# xmcd
#
# Track frame offsets:
#	150
#	16288
#	33337
#	33885
#	50998
#	61800
#	74108
#	88624
#	104092
#	116920
#	131000
#
# Disc length: 1953 seconds
#
# Revision: 1
# Processed by: cddbd v1.5.2PL0 Copyright (c) Steve Scherf et al.
# Submitted via: audiograbber 1.83.01
#
DISCID=a2079f0b
DTITLE=Hillcrest - Hillcrest Pure Country 12
DYEAR=1900
DGENRE=
TTITLE0=Train Of Dreams - Gary Fjellgaard
TTITLE1=The Love I Can´t Forget  - Desi Kay
TTITLE2=Id Danny Mack - Danny Mack
TTITLE3=Bitter Hall  - Danny Mack
TTITLE4=Whiskey Gap  - Barry Laporte
TTITLE5=It Ain´t That Way  - Erica Dawso
TTITLE6=Lonesome Dark Highway  - Chad Cline
TTITLE7=Country Boy  - Gregg Storm
TTITLE8=Matter Of Love  - Nicole Niles
TTITLE9=Doggone Jealous  - Brad Kepler
TTITLE10=So In Love With You  - Sadie Howe
EXTD=
EXTT0=
EXTT1=
EXTT2=
EXTT3=
EXTT4=
EXTT5=
EXTT6=
EXTT7=
EXTT8=
EXTT9=
EXTT10=
PLAYORDER=
